<?xml version="1.0" encoding="utf-8"?>
<!-- Generator: Adobe Illustrator 19.1.0, SVG Export Plug-In . SVG Version: 6.00 Build 0)  -->
<svg version="1.1" id="Layer_1" xmlns="http://www.w3.org/2000/svg" xmlns:xlink="http://www.w3.org/1999/xlink" x="0px" y="0px"
	 viewBox="0 0 214 220.2" style="enable-background:new 0 0 214 220.2;" xml:space="preserve">
<style type="text/css">
	.st0{fill:url(#);}
	.st1{opacity:0.9;fill:#FFFFFF;}
	.st2{stroke:#FFFFFF;stroke-width:0.5;stroke-miterlimit:10;}
	.st3{fill:#38266A;stroke:#38266A;stroke-width:3.525467e-02;stroke-miterlimit:10;}
	.st4{opacity:0.3;}
	.st5{stroke:#FFFFFF;stroke-miterlimit:10;}
	.st6{stroke:#FFFFFF;stroke-width:0.2;stroke-miterlimit:10;}
	.st7{fill:#38266A;stroke:#38266A;stroke-width:2.260718e-02;stroke-miterlimit:10;}
	.st8{fill:#38266A;stroke:#38266A;stroke-width:1.081612e-02;stroke-miterlimit:10;}
	.st9{fill:#38266A;stroke:#38266A;stroke-width:1.530854e-02;stroke-miterlimit:10;}
	.st10{fill:none;}
	.st11{fill:#38266A;stroke:#38266A;stroke-width:2.388561e-02;stroke-miterlimit:10;}
	.st12{fill:#38266A;stroke:#38266A;stroke-width:1.292517e-02;stroke-miterlimit:10;}
	.st13{fill:#38266A;stroke:#38266A;stroke-width:1.606829e-02;stroke-miterlimit:10;}
	.st14{fill:#38266A;stroke:#38266A;stroke-width:3.520926e-02;stroke-miterlimit:10;}
	.st15{fill:#38266A;stroke:#38266A;stroke-width:1.359874e-02;stroke-miterlimit:10;}
	.st16{fill:#38266A;stroke:#38266A;stroke-width:1.176371e-02;stroke-miterlimit:10;}
	.st17{fill:#38266A;stroke:#38266A;stroke-width:2.286788e-02;stroke-miterlimit:10;}
	.st18{fill:#38266A;stroke:#38266A;stroke-width:1.474572e-02;stroke-miterlimit:10;}
	.st19{fill:#38266A;stroke:#38266A;stroke-width:1.788476e-02;stroke-miterlimit:10;}
	.st20{fill:#38266A;stroke:#38266A;stroke-width:2.401127e-02;stroke-miterlimit:10;}
	.st21{fill:#38266A;stroke:#38266A;stroke-width:9.405263e-03;stroke-miterlimit:10;}
	.st22{fill:#38266A;stroke:#38266A;stroke-width:1.994419e-02;stroke-miterlimit:10;}
	.st23{fill:#38266A;stroke:#38266A;stroke-width:1.064521e-02;stroke-miterlimit:10;}
	.st24{fill:#38266A;stroke:#38266A;stroke-width:1.557358e-02;stroke-miterlimit:10;}
	.st25{fill:#38266A;stroke:#38266A;stroke-width:1.961645e-02;stroke-miterlimit:10;}
	.st26{fill:#38266A;stroke:#38266A;stroke-width:1.339769e-02;stroke-miterlimit:10;}
	.st27{fill:#38266A;stroke:#38266A;stroke-width:9.772467e-03;stroke-miterlimit:10;}
	.st28{fill:#38266A;stroke:#38266A;stroke-width:1.026109e-02;stroke-miterlimit:10;}
	.st29{fill:#38266A;stroke:#38266A;stroke-width:1.080630e-02;stroke-miterlimit:10;}
	.st30{fill:#38266A;stroke:#38266A;stroke-width:7.443401e-03;stroke-miterlimit:10;}
	.st31{fill:none;stroke:#38266A;stroke-width:0.6582;stroke-miterlimit:10;}
	.st32{fill:none;stroke:#38266A;stroke-width:0.4841;stroke-miterlimit:10;}
	.st33{fill:#38266A;stroke:#38266A;stroke-width:1.006732e-02;stroke-miterlimit:10;}
	.st34{fill:#38266A;stroke:#38266A;stroke-width:7.273265e-03;stroke-miterlimit:10;}
	.st35{fill:#38266A;stroke:#38266A;stroke-width:1.057069e-02;stroke-miterlimit:10;}
	.st36{fill:#38266A;stroke:#38266A;stroke-width:8.786516e-03;stroke-miterlimit:10;}
	.st37{fill:#38266A;stroke:#38266A;stroke-width:1.382077e-02;stroke-miterlimit:10;}
	.st38{fill:#38266A;stroke:#38266A;stroke-width:6.595947e-03;stroke-miterlimit:10;}
	.st39{fill:#38266A;stroke:#38266A;stroke-width:6.657301e-03;stroke-miterlimit:10;}
	.st40{fill:#38266A;stroke:#38266A;stroke-width:6.990166e-03;stroke-miterlimit:10;}
	.st41{fill:#38266A;stroke:#38266A;stroke-width:1.002673e-02;stroke-miterlimit:10;}
	.st42{fill:#38266A;stroke:#38266A;stroke-width:5.610770e-03;stroke-miterlimit:10;}
	.st43{fill:#38266A;stroke:#38266A;stroke-width:6.694611e-03;stroke-miterlimit:10;}
	.st44{fill:#38266A;stroke:#38266A;stroke-width:1.052807e-02;stroke-miterlimit:10;}
	.st45{fill:#38266A;stroke:#38266A;stroke-width:7.073881e-03;stroke-miterlimit:10;}
	.st46{fill:#38266A;stroke:#38266A;stroke-width:8.478648e-03;stroke-miterlimit:10;}
	.st47{fill:#FFFFFF;}
	.st48{fill:#38266A;}
</style>
<g>
	<rect x="24" y="39.2" class="st47" width="156" height="110.4"/>
	<g>
		<g>
			<path class="st48" d="M179.5,149.7c0,0,0-0.3,0-1s0-1.7,0-3c0-1.3,0.2-2.9,0-4.8c0.4-1.9,0-4.1,0-6.6c-0.4-2.5-0.1-5.2,0-8.2
				c-0.4-3-0.1-6.3,0-9.7c0-3.5-0.3-7.2,0-11.2c0.4-4,0.1-8.1,0-12.5c0.4-1.6-0.2-3.2,0-4.9c0-1.6,0.3-3.3,0-5
				c-0.2-1.7-0.2-3.4-0.1-5.2c0-1.7,0.1-3.5,0.1-5.3c0.1-3.6-0.4-7.3,0-11c0.2-3.8,0.1-7.6,0-11.6c-0.2-1.7-0.3-3.4-0.2-5.2
				c0-0.9,0-1.7,0-2.6l0.1-1.3l0-0.3l0-0.2c0,0,0,0,0-0.1l0-0.2l-0.2,0l-0.8,0c-4.1-0.3-8.3,0-12.5,0c-4.2-0.2-8.5,0-12.9,0
				c-3.7,0-7.5,0.1-11.4,0c-3.8-0.1-7.7,0.1-11.6,0c-3.9,0.4-7.8-0.4-11.8,0c-4-0.2-8-0.1-12,0c-4,0.5-8.1-0.4-12.2,0
				c-4.1-0.4-8.2,0.2-12.3,0c-4.1,0-8.3,0-12.4,0c-3.6,0-7.3,0-11,0c-3.7,0.1-7.3,0.4-11,0c-3.7,0.1-7.4,0.3-11,0
				c-3.7,0.4-7.4,0-11.1,0c-0.5,0-0.5,0-0.7-0.1c0,0.1-0.1,1.3-0.1,2c0,0.8,0,1.6,0,2.5c0,1.6,0.1,3.3,0.2,4.9c0.1,3.7,0,7.4,0,11.1
				c-0.1,3.7-0.2,7.4,0,11c0,3.7,0,7.3,0,11c0,3.6,0,7.3,0,10.9c0,3.5,0,6.9,0,10.3c0.1,3.4,0,6.8,0,10.2c0.1,3.4,0.3,6.8,0,10.1
				c-0.1,3.4-0.1,6.7,0,10c-0.4,3.3-0.4,6.6,0,9.9c-0.1,1-0.1,2-0.2,3l0,1.5l0,0.7l0,0.5l1.5-0.1c0.6,0,1.2-0.1,1.8-0.2
				c3.2,0,6.4-0.1,9.6,0c3.2,0,6.3,0,9.4,0c3.1,0,6.2,0,9.2,0c3.4,0,6.8,0,10.1,0c3.3,0.3,6.6,0.4,9.8,0c3.2,0.1,6.4-0.1,9.5,0
				c3.1,0,6.2-0.2,9.2,0c3,0.3,6,0.3,8.9,0c2.9-0.2,5.7,0,8.5,0c2.8-0.1,5.5-0.4,8.1,0c2.6-0.2,5.2-0.3,7.7,0c2.5,0.2,4.9,0,7.2,0
				c1.2,0,2.3,0.2,3.5,0c1.1-0.4,2.2-0.3,3.3,0c4-0.4,7.7,0,11.2,0c3.4,0.1,6.6,0.4,9.4,0c2.8-0.3,5.4-0.1,7.6,0
				c2.2,0.3,4.1,0.1,5.6,0c1.5,0.3,2.7-0.2,3.4,0c0.8,0.2,1.2,0,1.2,0c0,0,0,0.4,0,0.5c0,0.6,0,0.1,0,0.5c0,0.4-0.3,0.3-1,0
				c-0.7,0.1-1.7,0.1-3,0c-1.3-0.3-3,0.3-4.9,0c-1.9-0.4-4.2-0.3-6.7,0c-2.5,0.4-5.3,0-8.3,0c-3,0.4-6.3,0.2-9.9,0
				c-3.5,0-7.3,0.4-11.3,0c-1.2,0-2.4,0-3.6-0.1c-1.2,0-2.4,0-3.7,0.1c-2.5-0.3-5-0.2-7.7,0c-2.6-0.4-5.3-0.1-8.1,0
				c-2.8,0.3-5.6,0.2-8.5,0c-2.9-0.2-5.8,0-8.9,0c-3,0.1-6.1-0.3-9.2,0c-3.1-0.3-6.3,0.4-9.5,0c-3.2-0.1-6.5,0-9.8,0
				c-5.9,0-12,0-18.2,0c-3.1,0-6.2,0-9.4,0c-3.2,0.1-6.3,0.2-9.6,0c-0.8-0.1-1.6-0.1-2.4-0.1c-0.8,0-1.5,0-2.7,0c0-1.2,0-1.9,0-2.7
				c0-0.8-0.1-1.6-0.1-2.5c0.1-3.3-0.1-6.6,0-9.9c0.3-3.3-0.3-6.7,0-10c-0.3-3.4,0.1-6.7,0-10.1c0.1-3.4,0-6.8,0-10.2
				c0.2-3.4,0-6.9,0-10.3c0-3.6,0-7.3,0-10.9c0-3.7,0-7.3,0-11c0-3.7,0.3-7.4,0-11c0.4-3.7,0.2-7.4,0-11.1c0.1-1.8,0.1-3.6,0.1-5.4
				l0-2.7l-0.1-3.2l0.3,0l1.7,0.1c0.5,0,0.9,0,1.4,0c0.9,0,1.8,0,2.8-0.1c1.8-0.1,3.7-0.1,5.5-0.1c3.7-0.1,7.4,0.3,11.1,0
				c3.7-0.4,7.4,0.2,11,0c3.7,0,7.3,0,11,0c4.2,0,8.3,0,12.5,0c4.1-0.2,8.3,0.8,12.4,0c4.1,0,8.2,0.2,12.2,0c4-0.7,8.1-0.1,12.1,0
				c4-0.2,7.9,0.2,11.9,0c3.9,0.2,7.8-0.4,11.6,0c3.8-0.1,7.6,0,11.4,0c4.4,0,8.7-0.3,13,0c4.3,0.1,8.4,0.3,12.6,0
				c0.9,0,1.7,0,2.5,0c0,3.6,0,7.1,0,10.5c-0.2,4,0.3,7.8,0,11.6c-0.2,3.8,0.3,7.5,0,11.1c0.1,1.8,0.1,3.6,0.1,5.3
				c0,1.8-0.1,3.5-0.1,5.2c0.3,1.7,0.3,3.4,0,5c-0.1,1.7,0.1,3.3,0,4.9c-0.3,4.4-0.4,8.6,0,12.6c-0.3,4,0,7.7,0,11.2
				c0,3.5,0.1,6.8,0,9.8c-0.2,3-0.1,5.8,0,8.2c0.3,2.5,0.1,4.7,0,6.6c0.3,1.9,0,3.5,0,4.8c0,1.3,0,2.3,0,3c0,0.7,0,1,0,1H179.5z"/>
		</g>
	</g>
</g>
</svg>
