<?xml version="1.0" encoding="utf-8"?>
<!-- Generator: Adobe Illustrator 19.1.0, SVG Export Plug-In . SVG Version: 6.00 Build 0)  -->
<svg version="1.1" id="Layer_1" xmlns="http://www.w3.org/2000/svg" xmlns:xlink="http://www.w3.org/1999/xlink" x="0px" y="0px"
	 viewBox="0 0 325 19" style="enable-background:new 0 0 325 19;" xml:space="preserve">
<style type="text/css">
	.st0{fill:url(#);}
	.st1{opacity:0.9;fill:#FFFFFF;}
	.st2{stroke:#FFFFFF;stroke-width:0.5;stroke-miterlimit:10;}
	.st3{fill:#38266A;stroke:#38266A;stroke-width:3.525467e-02;stroke-miterlimit:10;}
	.st4{opacity:0.3;}
	.st5{stroke:#FFFFFF;stroke-miterlimit:10;}
	.st6{stroke:#FFFFFF;stroke-width:0.2;stroke-miterlimit:10;}
	.st7{fill:#38266A;stroke:#38266A;stroke-width:2.260718e-02;stroke-miterlimit:10;}
	.st8{fill:#38266A;stroke:#38266A;stroke-width:1.081612e-02;stroke-miterlimit:10;}
	.st9{fill:#38266A;stroke:#38266A;stroke-width:1.530854e-02;stroke-miterlimit:10;}
	.st10{fill:none;}
	.st11{fill:#38266A;stroke:#38266A;stroke-width:2.388561e-02;stroke-miterlimit:10;}
	.st12{fill:#38266A;stroke:#38266A;stroke-width:1.292517e-02;stroke-miterlimit:10;}
	.st13{fill:#38266A;stroke:#38266A;stroke-width:1.606829e-02;stroke-miterlimit:10;}
	.st14{fill:#38266A;stroke:#38266A;stroke-width:3.520926e-02;stroke-miterlimit:10;}
	.st15{fill:#38266A;stroke:#38266A;stroke-width:1.359874e-02;stroke-miterlimit:10;}
	.st16{fill:#38266A;stroke:#38266A;stroke-width:1.176371e-02;stroke-miterlimit:10;}
	.st17{fill:#38266A;stroke:#38266A;stroke-width:2.286788e-02;stroke-miterlimit:10;}
	.st18{fill:#38266A;stroke:#38266A;stroke-width:1.474572e-02;stroke-miterlimit:10;}
	.st19{fill:#38266A;stroke:#38266A;stroke-width:1.788476e-02;stroke-miterlimit:10;}
	.st20{fill:#38266A;stroke:#38266A;stroke-width:2.401127e-02;stroke-miterlimit:10;}
	.st21{fill:#38266A;stroke:#38266A;stroke-width:9.405263e-03;stroke-miterlimit:10;}
	.st22{fill:#38266A;stroke:#38266A;stroke-width:1.994419e-02;stroke-miterlimit:10;}
	.st23{fill:#38266A;stroke:#38266A;stroke-width:1.064521e-02;stroke-miterlimit:10;}
	.st24{fill:#38266A;stroke:#38266A;stroke-width:1.557358e-02;stroke-miterlimit:10;}
	.st25{fill:#38266A;stroke:#38266A;stroke-width:1.961645e-02;stroke-miterlimit:10;}
	.st26{fill:#38266A;stroke:#38266A;stroke-width:1.339769e-02;stroke-miterlimit:10;}
	.st27{fill:#38266A;stroke:#38266A;stroke-width:9.772467e-03;stroke-miterlimit:10;}
	.st28{fill:#38266A;stroke:#38266A;stroke-width:1.026109e-02;stroke-miterlimit:10;}
	.st29{fill:#38266A;stroke:#38266A;stroke-width:1.080630e-02;stroke-miterlimit:10;}
	.st30{fill:#38266A;stroke:#38266A;stroke-width:7.443401e-03;stroke-miterlimit:10;}
	.st31{fill:none;stroke:#38266A;stroke-width:0.6582;stroke-miterlimit:10;}
	.st32{fill:none;stroke:#38266A;stroke-width:0.4841;stroke-miterlimit:10;}
	.st33{fill:#38266A;stroke:#38266A;stroke-width:1.006732e-02;stroke-miterlimit:10;}
	.st34{fill:#38266A;stroke:#38266A;stroke-width:7.273265e-03;stroke-miterlimit:10;}
	.st35{fill:#38266A;stroke:#38266A;stroke-width:1.057069e-02;stroke-miterlimit:10;}
	.st36{fill:#38266A;stroke:#38266A;stroke-width:8.786516e-03;stroke-miterlimit:10;}
	.st37{fill:#38266A;stroke:#38266A;stroke-width:1.382077e-02;stroke-miterlimit:10;}
	.st38{fill:#38266A;stroke:#38266A;stroke-width:6.595947e-03;stroke-miterlimit:10;}
	.st39{fill:#38266A;stroke:#38266A;stroke-width:6.657301e-03;stroke-miterlimit:10;}
	.st40{fill:#38266A;stroke:#38266A;stroke-width:6.990166e-03;stroke-miterlimit:10;}
	.st41{fill:#38266A;stroke:#38266A;stroke-width:1.002673e-02;stroke-miterlimit:10;}
	.st42{fill:#38266A;stroke:#38266A;stroke-width:5.610770e-03;stroke-miterlimit:10;}
	.st43{fill:#38266A;stroke:#38266A;stroke-width:6.694611e-03;stroke-miterlimit:10;}
	.st44{fill:#38266A;stroke:#38266A;stroke-width:1.052807e-02;stroke-miterlimit:10;}
	.st45{fill:#38266A;stroke:#38266A;stroke-width:7.073881e-03;stroke-miterlimit:10;}
	.st46{fill:#38266A;stroke:#38266A;stroke-width:8.478648e-03;stroke-miterlimit:10;}
	.st47{fill:#38266A;stroke:#38266A;stroke-width:6.139774e-03;stroke-miterlimit:10;}
	.st48{fill:#38266A;stroke:#38266A;stroke-width:4.157573e-03;stroke-miterlimit:10;}
	.st49{fill:#38266A;stroke:#38266A;stroke-width:6.486977e-03;stroke-miterlimit:10;}
	.st50{fill:#38266A;stroke:#38266A;stroke-width:4.363908e-03;stroke-miterlimit:10;}
	.st51{fill:#38266A;stroke:#38266A;stroke-width:9.562312e-03;stroke-miterlimit:10;}
	.st52{fill:#38266A;stroke:#38266A;stroke-width:3.693215e-03;stroke-miterlimit:10;}
	.st53{fill:#38266A;stroke:#38266A;stroke-width:3.194848e-03;stroke-miterlimit:10;}
	.st54{fill:#38266A;stroke:#38266A;stroke-width:6.210577e-03;stroke-miterlimit:10;}
	.st55{fill:#38266A;stroke:#38266A;stroke-width:4.857234e-03;stroke-miterlimit:10;}
	.st56{fill:#38266A;stroke:#38266A;stroke-width:6.521106e-03;stroke-miterlimit:10;}
	.st57{fill:#38266A;stroke:#38266A;stroke-width:2.554330e-03;stroke-miterlimit:10;}
	.st58{fill:#38266A;stroke:#38266A;stroke-width:5.416546e-03;stroke-miterlimit:10;}
	.st59{fill:#38266A;stroke:#38266A;stroke-width:4.229552e-03;stroke-miterlimit:10;}
	.st60{fill:#38266A;stroke:#38266A;stroke-width:5.327538e-03;stroke-miterlimit:10;}
	.st61{fill:#38266A;stroke:#38266A;stroke-width:3.638613e-03;stroke-miterlimit:10;}
	.st62{fill:#38266A;stroke:#38266A;stroke-width:2.654057e-03;stroke-miterlimit:10;}
	.st63{fill:#38266A;stroke:#38266A;stroke-width:2.786760e-03;stroke-miterlimit:10;}
	.st64{fill:#38266A;stroke:#38266A;stroke-width:2.934830e-03;stroke-miterlimit:10;}
	.st65{fill:#38266A;stroke:#38266A;stroke-width:2.021517e-03;stroke-miterlimit:10;}
	.st66{fill:none;stroke:#38266A;stroke-width:0.1788;stroke-miterlimit:10;}
	.st67{fill:none;stroke:#38266A;stroke-width:0.1315;stroke-miterlimit:10;}
	.st68{fill:#38266A;stroke:#38266A;stroke-width:2.734136e-03;stroke-miterlimit:10;}
	.st69{fill:#38266A;stroke:#38266A;stroke-width:2.870843e-03;stroke-miterlimit:10;}
	.st70{fill:#38266A;stroke:#38266A;stroke-width:2.386288e-03;stroke-miterlimit:10;}
	.st71{fill:#38266A;stroke:#38266A;stroke-width:3.753515e-03;stroke-miterlimit:10;}
	.st72{fill:#38266A;stroke:#38266A;stroke-width:1.808024e-03;stroke-miterlimit:10;}
	.st73{fill:#38266A;stroke:#38266A;stroke-width:1.898425e-03;stroke-miterlimit:10;}
	.st74{fill:#38266A;stroke:#38266A;stroke-width:2.723112e-03;stroke-miterlimit:10;}
	.st75{fill:#38266A;stroke:#38266A;stroke-width:1.818157e-03;stroke-miterlimit:10;}
	.st76{fill:#38266A;stroke:#38266A;stroke-width:2.859267e-03;stroke-miterlimit:10;}
	.st77{fill:#38266A;stroke:#38266A;stroke-width:1.921161e-03;stroke-miterlimit:10;}
	.st78{fill:#38266A;stroke:#38266A;stroke-width:2.302675e-03;stroke-miterlimit:10;}
	.st79{fill:#38266A;}
</style>
<g>
	<g>
		<g>
			<path class="st79" d="M320,10.1c0,0-0.2,0-0.6,0s-1,0-1.8,0c-0.8,0-1.7-0.2-2.8,0c-1.1-0.4-2.4,0-3.9,0c-1.5,0.4-3.1,0.1-4.8,0
				c-1.8,0.4-3.7,0.1-5.8,0c-2.1,0-4.3,0.3-6.6,0c-2.3-0.4-4.8-0.1-7.4,0c-0.9-0.4-1.9,0.2-2.9,0c-1,0-2-0.3-3,0
				c-1,0.2-2,0.2-3.1,0.1c-1,0-2.1-0.1-3.1-0.1c-2.1-0.1-4.3,0.4-6.5,0c-2.2-0.2-4.5-0.1-6.8,0c-2.3,0.4-4.7,0.2-7.1,0
				c-2.4-0.3-4.9,0-7.4,0c-2.5-0.2-5,0-7.6,0c-2.2,0-4.4,0.1-6.7,0c-2.3-0.1-4.5,0.1-6.9,0c-2.3,0.4-4.6-0.4-7,0
				c-2.3-0.2-4.7-0.1-7.1,0c-2.4,0.5-4.8-0.4-7.2,0c-2.4-0.4-4.8,0.2-7.3,0c-2.4,0-4.9,0-7.3,0c-2.2,0-4.3,0-6.5,0
				c-2.2,0.1-4.3,0.4-6.5,0c-2.2,0.1-4.3,0.3-6.5,0c-2.2,0.4-4.4,0-6.5,0c-2.2-0.2-4.4-0.2-6.5,0c-2.2,0.1-4.4,0-6.5,0
				c-2.2-0.1-4.3-0.2-6.5,0c-2.2,0-4.3,0-6.5,0c-2.2,0-4.3,0-6.4,0c-2,0-4.1,0-6.1,0c-2,0.1-4,0-6,0c-2,0.1-4,0.3-6,0
				c-2-0.1-4-0.1-5.9,0c-2-0.4-3.9-0.4-5.8,0c-1.9-0.2-3.8-0.4-5.7,0c-1.9,0-3.8,0.1-5.6,0c-1.9,0-3.7,0-5.5,0s-3.6,0-5.4,0
				c-2,0-4,0-6,0c-2-0.3-3.9-0.4-5.8,0c-1.9-0.1-3.8,0.1-5.6,0c-1.8,0-3.7,0.2-5.4,0c-1.8-0.3-3.5-0.3-5.2,0c-1.7,0.2-3.4,0-5,0
				c-1.6,0.1-3.2,0.4-4.8,0c-1.6,0.2-3.1,0.3-4.5,0c-1.5-0.2-2.9,0-4.3,0c-0.7,0-1.4-0.2-2,0c-0.7,0.4-1.3,0.3-2,0
				c-2.4,0.4-4.6,0-6.6,0c-2-0.1-3.9-0.4-5.6,0c-1.7,0.3-3.2,0.1-4.5,0c-1.3-0.3-2.4-0.1-3.3,0c-0.9-0.3-1.6,0.2-2,0
				c-0.5-0.2-0.7,0-0.7,0c0,0,0-0.5,0-0.5c0-0.6,0-0.1,0-0.5c0-0.4,0.2-0.3,0.6,0c0.4-0.1,1-0.1,1.8,0c0.8,0.3,1.7-0.3,2.9,0
				c1.1,0.4,2.5,0.3,3.9,0c1.5-0.4,3.1,0,4.9,0c1.8-0.4,3.7-0.2,5.8,0c2.1,0,4.3-0.4,6.7,0c0.7,0,1.4,0,2.1,0.1s1.4,0,2.2-0.1
				c1.5,0.3,3,0.2,4.5,0c1.6,0.4,3.1,0.1,4.8,0c1.6-0.3,3.3-0.2,5,0c1.7,0.2,3.5,0,5.2,0c1.8-0.1,3.6,0.3,5.4,0
				c1.8,0.3,3.7-0.4,5.6,0c1.9,0.1,3.8,0,5.8,0c3.5,0,7.1,0,10.7,0c1.8,0,3.7,0,5.5,0c1.9-0.1,3.7-0.2,5.6,0c1.9,0.2,3.8,0.2,5.7,0
				c1.9,0.1,3.9-0.1,5.8,0c2,0.3,3.9-0.3,5.9,0c2-0.3,4,0.1,6,0c2,0.1,4,0,6,0c2,0.2,4.1,0,6.1,0c2.1,0,4.3,0,6.5,0s4.3,0,6.5,0
				c2.2,0,4.3,0.3,6.5,0c2.2,0.4,4.4,0.2,6.5,0c2.2,0.1,4.4,0.1,6.6,0c2.2,0.3,4.4-0.2,6.6,0c2.2-0.1,4.4,0.3,6.5,0
				c2.2-0.4,4.4,0.2,6.5,0c2.2,0,4.3,0,6.5,0c2.5,0,4.9,0,7.4,0c2.4-0.2,4.9,0.8,7.3,0c2.4,0,4.8,0.2,7.2,0c2.4-0.7,4.8-0.1,7.1,0
				c2.4-0.2,4.7,0.2,7,0c2.3,0.2,4.6-0.4,6.9,0c2.3-0.1,4.5,0,6.7,0c2.6,0,5.1-0.3,7.7,0c2.5,0.1,5,0.3,7.4,0c2.4,0,4.8,0,7.1,0
				c2.3,0.2,4.6-0.3,6.9,0c2.2,0.2,4.4-0.3,6.5,0c1.1-0.1,2.1-0.1,3.2-0.1c1,0,2.1,0.1,3.1,0.1c1-0.3,2-0.3,3,0c1,0.1,1.9-0.1,2.9,0
				c2.6,0.3,5.1,0.4,7.4,0c2.3,0.3,4.6,0,6.6,0c2.1,0,4-0.1,5.8,0c1.8,0.2,3.4,0.1,4.9,0c1.5-0.3,2.8-0.1,3.9,0c1.1-0.3,2.1,0,2.9,0
				c0.8,0,1.4,0,1.8,0c0.4,0,0.6,0,0.6,0V10.1z"/>
		</g>
	</g>
</g>
</svg>
